<?xml version="1.0" encoding="UTF-8" standalone="no"?>
<svg
   xmlns:dc="http://purl.org/dc/elements/1.1/"
   xmlns:cc="http://creativecommons.org/ns#"
   xmlns:rdf="http://www.w3.org/1999/02/22-rdf-syntax-ns#"
   xmlns:svg="http://www.w3.org/2000/svg"
   xmlns="http://www.w3.org/2000/svg"
   xmlns:sodipodi="http://sodipodi.sourceforge.net/DTD/sodipodi-0.dtd"
   xmlns:inkscape="http://www.inkscape.org/namespaces/inkscape"
   viewBox="0 0 748.12512 747.99969"
   version="1.1"
   id="svg859"
   sodipodi:docname="logo.svg"
   width="748.12512"
   height="747.99969"
   inkscape:version="1.0.1 (3bc2e813f5, 2020-09-07)">
  <metadata
     id="metadata865">
    <rdf:RDF>
      <cc:Work
         rdf:about="">
        <dc:format>image/svg+xml</dc:format>
        <dc:type
           rdf:resource="http://purl.org/dc/dcmitype/StillImage" />
        <dc:title></dc:title>
      </cc:Work>
    </rdf:RDF>
  </metadata>
  <defs
     id="defs863" />
  <sodipodi:namedview
     pagecolor="#ffffff"
     bordercolor="#666666"
     borderopacity="1"
     objecttolerance="10"
     gridtolerance="10"
     guidetolerance="10"
     inkscape:pageopacity="0"
     inkscape:pageshadow="2"
     inkscape:window-width="1918"
     inkscape:window-height="1059"
     id="namedview861"
     showgrid="false"
     fit-margin-top="0"
     fit-margin-left="0"
     fit-margin-right="0"
     fit-margin-bottom="0"
     inkscape:zoom="11.313709"
     inkscape:cx="491.25519"
     inkscape:cy="367.79067"
     inkscape:window-x="1920"
     inkscape:window-y="19"
     inkscape:window-maximized="1"
     inkscape:current-layer="svg859" />
  <path
     style="fill:#be1371"
     d="m 493.90264,391.83753 c -3.2128,-17.713 -6.51214,-33.47331 -6.99689,-34.87755 -0.62051,1.31821 -1.13631,3.60465 -2.05571,6.82215 -0.9194,3.2175 -2.2491,7.875 -2.9548,10.35 l -1.2831,4.5 h -164.8952 -164.8952 l -0.3023,-5.25 -0.3022,-5.25 h 160.5134 160.5135 l 1.4053,-4.75 c 0.7729,-2.6125 4.9264,-17.0919 9.23,-32.1763 4.3035,-15.0845 7.9384,-27.0095 8.0775,-26.5 0.139,0.5094 2.7744,15.1013 5.8564,32.4263 3.0821,17.325 5.97989,32.625 6.4396,34 0.29427,0.88014 0.36678,1.11123 0.72933,1.85479 0.44482,-0.7936 1.92139,-4.4149 7.40107,-21.85479 3.36984,-10.72502 6.2396,-19.6176 6.3773,-19.7613 0.1376,-0.1437 3.3576,8.0623 7.1556,18.2355 l 6.9054,18.4968 5.6276,0.014 c 3.9015,0.01 6.0261,-0.4658 6.9271,-1.5514 1.969,-2.3725 6.5011,-4.4341 9.7478,-4.4341 7.1911,0 13.5389,8.7135 11.2115,15.3898 -3.3244,9.5364 -14.3536,12.1998 -21.0412,5.0812 -2.1413,-2.2793 -3.0322,-2.471 -11.4847,-2.471 h -9.1632 l -1.8695,-5.5 c -1.02697,-3.02129 -2.41292,-5.27816 -2.61565,-5.55918 -0.2251,0.23624 -2.84535,6.69668 -5.38425,14.80918 -6.1586,19.6789 -12.5906,39.7013 -12.8352,39.9554 -0.1088,0.113 -2.8264,-14.287 -6.0393,-32 z m 92.1617,26.7538 c -1.5085,-2.4974 -2.7371,-4.8599 -2.7303,-5.25 0.01,-0.39 1.524,-1.688 3.3716,-2.8842 6.7887,-4.3956 14.3956,-16.0622 16.5399,-25.3673 1.492,-6.4744 1.3015,-15.6666 -0.4662,-22.4976 -2.1041,-8.1308 -6.8293,-15.6671 -13.7943,-22.0008 l -5.8366,-5.3076 2.6816,-4.5759 c 1.4749,-2.5167 3.0485,-4.5758 3.4968,-4.5758 1.8189,0 11.1744,8.3239 14.8854,13.2442 16.50943,21.8888 15.96833,50.9786 -1.3335,71.6875 -3.3308,3.9867 -12.402,12.0683 -13.546,12.0683 -0.2891,0 -1.7599,-2.0433 -3.2684,-4.5408 z m -13.6283,-22.5826 -2.9708,-5.2017 2.4561,-1.932 c 3.7957,-2.9857 6.4003,-8.9959 6.4003,-14.7688 0,-5.9 -0.9611,-8.1369 -5.5746,-12.9741 l -3.3381,-3.5 3.0115,-4.8356 3.0115,-4.8357 3.1949,2.4206 c 4.0442,3.0642 9.3338,10.7901 10.6623,15.5734 3.3086,11.9124 -1.2127,25.3176 -11.1749,33.1318 l -2.7075,2.1237 z"
     id="path939-1"
     sodipodi:nodetypes="ccsscccccccssssscsssccssssscscssccscsssscssssssccssscccssscc" />
  <path
     style="fill:#1371be"
     d="m 335.32164,746.55823 c -43.7173,-4.7263 -83.89619,-16.2397 -123.69495,-35.4452 C 171.70172,691.84673 141.3832,670.27623 109.8002,638.66743 60.849233,589.67663 29.144833,534.03853 11.429123,466.03601 4.6216126,439.90509 1.7186726,420.08574 0.38853265,390.65812 -3.3263674,308.47082 19.662223,228.64519 66.607803,160.71815 90.188163,126.59897 125.43656,91.201455 159.8217,67.109875 211.69005,30.768885 276.93692,6.8450346 339.82164,1.1098846 c 18.2643,-1.66570999 54.9403,-1.41926999 72.7916,0.48913 46.779,5.0009 88.0677,17.1720504 130.6956,38.5266604 85.24783,42.70522 153.13853,120.007705 183.99853,209.506435 14.3457,41.60472 19.8299,72.34189 20.6973,116 0.7655,38.53146 -2.0564,65.56031 -10.2181,97.87177 -21.5459,85.29902 -69.3713,157.57365 -139.09763,210.20705 -54.5842,41.2032 -122.1951,67.0745 -191.8673,73.418 -15.2359,1.3872 -56.4311,1.0584 -71.5,-0.5707 z m 77.9622,-5.0553 c 44.3168,-4.5641 85.6506,-16.6369 126.0378,-36.813 37.8396,-18.9034 65.8454,-39.1981 96.55553,-69.9701 30.0626,-30.1231 50.2913,-58.0807 68.8005,-95.08772 26.2657,-52.51535 38.7449,-105.91112 38.7962,-166 0.037,-43.51475 -5.9027,-79.49001 -19.7319,-119.5083 -19.7741,-57.22186 -49.2754,-103.50366 -93.059,-145.9917 -17.5065,-16.988475 -31.52313,-28.298875 -51.86133,-41.848405 -49.746,-33.1413 -103.909,-52.75375 -165,-59.7465704 -18.1097,-2.07294 -57.2427,-2.32469 -75,-0.4825 -76.22555,7.9079104 -145.61563,37.1618404 -203.225,85.6769804 -18.50609,15.584705 -45.790157,44.721895 -58.900027,62.900495 -13.67962,18.96861 -20.39968,29.79032 -30.22007,48.66511 -35.14774,67.55398 -48.4717504,143.13922 -38.6639004,219.33489 7.0891104,55.07414 27.3902704,109.0623 58.6606504,156.00002 33.2234,49.8692 77.692637,90.7977 129.924747,119.5799 28.85106,15.8982 66.12209,29.908 97.9237,36.8087 38.3728,8.3265 79.3655,10.5602 118.9621,6.4822 z"
     id="path937-2"
     sodipodi:nodetypes="ssssssssssssssssssssssssssssssssss" />
  <path
     style="fill:#333333"
     d="m 347.69278,543.15422 c -11.8309,-3.75114 -19.7435,-14.02424 -22.9281,-29.76778 -0.9249,-4.5723 -1.3794,-8.61543 -1.0101,-8.98474 0.3693,-0.36931 4.1825,-1.62972 8.4738,-2.80091 l 7.8023,-2.12945 1.6649,8.47308 c 3.3774,17.1893 10.1019,23.6577 22.8211,21.95171 5.0272,-0.67429 8.6953,-3.24468 11.0847,-7.76749 1.4177,-2.68353 1.7255,-5.05931 1.4157,-10.92892 -0.6658,-12.61544 -2.9003,-15.5796 -28.9281,-38.37547 -15.7053,-13.75508 -18.729,-17.30273 -21.9319,-25.73188 -2.3297,-6.13134 -2.8562,-19.742 -1.0216,-26.40803 1.4949,-5.43151 6.2307,-12.69071 10.0566,-15.41495 10.9225,-7.77755 32.2173,-8.18105 43.144,-0.81751 7.1595,4.82476 13.2253,16.66263 14.1637,27.64158 0.2888,3.37796 0.2599,3.40236 -6.2099,5.2461 -9.0061,2.56653 -10,2.46371 -10,-1.0345 0,-1.59207 -0.8913,-5.78049 -1.9807,-9.30761 -2.9182,-9.44806 -7.6971,-13.13464 -17.015,-13.1259 -10.8532,0.0102 -16.0096,5.27934 -15.9786,16.32817 0.028,10.10325 1.9299,13.12567 16.1161,25.61521 19.0465,16.76861 25.6674,23.3469 29.9444,29.75168 11.5705,17.32697 10.3428,40.04369 -2.7889,51.60264 -8.6162,7.58432 -23.9863,10.07764 -36.8944,5.98497 z m -176.7362,0.37883 c -0.3666,-0.36666 -0.6666,-32.76666 -0.6666,-72 v -71.33333 h 27.5 27.5 v 7 7 h -18.0178 -18.0178 l 0.2678,24.25 0.2678,24.25 13.75,0.27822 13.75,0.27822 v 6.47178 6.47178 h -14 -14 v 34 34 h -8.8334 c -4.8583,0 -9.1333,-0.3 -9.5,-0.66667 z m 61.9552,-0.13619 c -0.2729,-0.44158 1.034,-7.97908 2.9042,-16.75 3.4226,-16.05138 22.1366,-104.26837 25.18,-118.69714 l 1.6346,-7.75 h 9.3611 c 6.6139,0 9.4757,0.36684 9.7516,1.25 0.4263,1.36426 29.7112,139.62051 29.9191,141.25 0.077,0.6016 -3.4336,1 -8.8109,1 h -8.9384 l -2.332,-13 c -1.2826,-7.15 -2.8047,-15.3625 -3.3824,-18.25 l -1.0505,-5.25 h -14.8617 c -13.2907,0 -14.9163,0.18499 -15.378,1.75 -0.284,0.9625 -1.6929,8.275 -3.1309,16.25 -3.6546,20.26781 -2.8267,19 -12.4072,19 -4.3793,0 -8.1857,-0.36129 -8.4586,-0.80286 z m 51.3809,-50.44714 c 0.01,-3.29888 -11.2926,-62.37109 -12.0894,-63.2 -0.5769,-0.6 -0.9146,-0.6 -0.9169,0 0,0.5225 -2.4769,14.40647 -5.5,30.85326 -3.023,16.44679 -5.4964,30.73429 -5.4964,31.75 0,1.69306 0.9986,1.84674 12,1.84674 8.9318,0 12.0007,-0.3196 12.0027,-1.25 z m 143.7545,-13.46257 -0.2573,-64.78743 -12.25,-0.28078 -12.25,-0.28078 v -6.96922 -6.96922 h 34 34 v 7 7 h -11.9927 -11.9927 l -0.2573,64.75 -0.2573,64.75 -9.2427,0.28743 -9.2427,0.28743 z M 171.28998,283.69972 v -71.5 h 9.5 9.5 v 71.5 71.5 h -9.5 -9.5 z m 43,-0.0806 v -71.58057 l 23.25,0.37054 c 21.5109,0.34283 23.6988,0.54566 29.25,2.71166 7.8707,3.07107 14.4961,9.77989 17.4469,17.66674 3.2941,8.80421 4.3625,25.66461 3.7332,58.91219 -0.5776,30.51419 -1.4004,37.0265 -5.7837,45.78148 -4.4878,8.96379 -12.4141,14.60369 -23.3703,16.62906 -3.2414,0.59924 -14.5858,1.0895 -25.2098,1.0895 h -19.3163 v -71.58056 z m 42.5,56.11075 c 1.65,-0.70613 4.1832,-2.57679 5.6293,-4.15703 5.1859,-5.66664 5.3707,-7.48558 5.3707,-52.87312 v -42 l -2.5,-5 c -3.7975,-7.59485 -8.5252,-9.63463 -21.5,-9.27623 l -10,0.27623 -0.2584,56.93583 c -0.2035,44.85989 0.01,57.11868 1,57.79796 1.7149,1.17489 18.5416,-0.11299 22.2584,-1.7036 z m 51.4999,-56.03015 v -71.5 h 27.5 27.5 v 7 7 h -18 -18 v 24 24 h 14.5 14.5 v 7 7 h -14.5 -14.5 v 26.39301 c 0,23.14448 0.1947,26.46772 1.5818,27 0.87,0.33385 9.195,0.60699 18.5,0.60699 h 16.9182 v 6.5 6.5 h -28 -28 z m 65,71.21855 c 0,-0.1548 2.2088,-10.6173 4.9084,-23.25 2.6996,-12.6327 9.5271,-44.69641 15.1724,-71.25268 l 10.264,-48.28414 9.4953,0.28414 9.4953,0.28413 4.6931,22 c 18.8886,88.54385 22.3915,104.94073 23.9883,112.28632 l 1.8012,8.28632 -9.159,-0.28632 -9.159,-0.28632 -2.5846,-14 c -1.4216,-7.7 -2.9044,-15.6875 -3.2953,-17.75 l -0.7107,-3.75 h -14.8873 c -13.3165,0 -14.9414,0.18465 -15.3998,1.75 -0.2819,0.9625 -1.6896,8.05 -3.1281,15.75 -1.4385,7.7 -2.862,15.0125 -3.1632,16.25 -0.517,2.12357 -1.0474,2.25 -9.4394,2.25 -4.8904,0 -8.8916,-0.12665 -8.8916,-0.28145 z m 52,-50.95321 c 0,-1.73674 -11.2401,-62.17384 -11.6576,-62.68201 -0.1883,-0.22916 -0.5359,-0.22309 -0.7725,0.0135 -0.5255,0.5255 -11.5699,59.95992 -11.5699,62.26233 0,1.42996 1.5423,1.64084 12,1.64084 8.8538,0 12,-0.32371 12,-1.23466 z"
     id="path935-8" />
</svg>
